<?xml version="1.0" encoding="utf-8"?>
<!-- Generator: Adobe Illustrator 15.0.0, SVG Export Plug-In . SVG Version: 6.00 Build 0)  -->
<!DOCTYPE svg PUBLIC "-//W3C//DTD SVG 1.1//EN" "http://www.w3.org/Graphics/SVG/1.1/DTD/svg11.dtd">
<svg version="1.1" id="Layer_1" xmlns="http://www.w3.org/2000/svg" xmlns:xlink="http://www.w3.org/1999/xlink" x="0px" y="0px"
	 width="864px" height="864px" viewBox="0 0 864 864" enable-background="new 0 0 864 864" xml:space="preserve">
<path fill="#FFFFFF" stroke="#000000" stroke-miterlimit="10" d="M642.187,605.611c0,0,60.494-12.726,41.694-196.642"/>
<path fill="#F8A800" stroke="#000000" stroke-miterlimit="10" d="M642.187,605.611c-20.349-30.559-43.531,0-43.531,0
	c6.967-45.423-31.9-40.755-31.9-40.755c41.569-45.209-14.689-46.355-14.689-46.355c35.988-39.394-10.969-58.364-10.969-58.364
	c37.498-43.665-9.026-64.377-9.026-64.377c34.362-45.031-10.064-61.247-10.064-61.247c19.805-41.892-15.345-40.385-15.345-40.385
	c20.582-59.615-31.77-43.102-31.77-43.102s-1.702-44.464-42.892-26.318l24.973,277.373l54.055,133.783l131.159-26.884"/>
<path fill="#8DBE23" stroke="#000000" stroke-miterlimit="10" d="M167.434,511.052c0,0-24.281,76.643,17.058,21.939"/>
<path fill="#8DBE23" stroke="#000000" stroke-miterlimit="10" d="M395.176,543.373c0,0-223.193,4.054-209.68,90.54
	c0,0-69.464,1.843-33.507,12.162l42.966,1"/>
<path fill="#8DBE23" stroke="#000000" stroke-miterlimit="10" d="M426.074,554.004c-226.371-2.839-220.009,86.284-220.009,86.284
	c-85.084,5.02-32.428,13.341-32.428,13.341s370.415,10.667,421.595-4.779s46.955-43.238,46.955-43.238
	c-104.925,43.084-98.208-198.898-123.465-281.05c-25.258-82.152-86.493-119.298-204.053-117.965
	c-117.561,1.333-140.52,121.871-140.52,121.871l222.579,63.697l-226.667,52.573c0,0-27.119,101.53,38.083,183.042"/>
<path fill="#8DBE23" stroke="#000000" stroke-miterlimit="10" d="M420.486,469.647c0,0,18.285,83.783-20.587,17.567"/>
<polygon fill="#FFFFFF" stroke="#000000" stroke-miterlimit="10" points="174.149,328.468 184.491,366.945 209.3,338.527 
	216.433,373.702 243.386,348.282 251.567,383.161 280.328,358.854 289.405,391.269 319.233,369.987 327.243,391.269 351.355,379.18 
	"/>
<polygon fill="#FFFFFF" stroke="#000000" stroke-miterlimit="10" points="169.896,445.405 181.857,407.4 205.441,436.843 
	214.056,402.002 239.91,428.54 249.56,394.038 277.266,419.541 287.707,387.538 316.607,410.064 325.512,389.14 349.089,402.238 "/>
<path fill="#FFEE43" d="M684.351,409.485c0,0,35.135-50,0-60.811S677.594,400.026,684.351,409.485z"/>
<path fill="#FFEE43" d="M686.598,409.315c0,0-45.93,11.159-48.521,36.656C634.361,482.543,683.122,420.409,686.598,409.315z"/>
<path fill="#FFEE43" d="M686.044,412.385c0,0,51.071-8.954,49.638-35.128C733.671,340.552,689.862,401.405,686.044,412.385z"/>
<path fill="#FFEE43" d="M683.721,410.095c0,0,5.009,42.295,34.346,50.183C752.918,469.647,693.568,414.817,683.721,410.095z"/>
<path fill="#FFEE43" d="M683.881,408.969c0,0-34.908-52.218-56.506-22.471C615.081,403.431,672.594,411.752,683.881,408.969z"/>
<ellipse transform="matrix(0.9582 0.286 -0.286 0.9582 105.4602 -104.6342)" stroke="#000000" stroke-miterlimit="10" cx="410.979" cy="308.76" rx="14.804" ry="26.708"/>
</svg>
